<?xml version="1.0" encoding="UTF-8" standalone="no"?>
<!-- Created with Inkscape (http://www.inkscape.org/) -->

<svg
   width="100.0859mm"
   height="61.931789mm"
   viewBox="0 0 100.0859 61.93179"
   version="1.1"
   id="svg1"
   xmlns="http://www.w3.org/2000/svg"
   xmlns:svg="http://www.w3.org/2000/svg">
  <defs
     id="defs1" />
  <g
     id="layer1"
     transform="translate(-10.092039,-5.792997)">
    <g
       id="g2"
       transform="matrix(1.332943,0,0,1.332943,-3.3600609,-1.9287382)"
       style="fill:currentColor;fill-opacity:1">
      <path
         d="m 144.87301,136.02568 7.66134,-22.74136 h 3.25867 l 7.66134,22.74136 h -3.05067 L 156.45168,123.303 q -0.58933,-1.90667 -1.17866,-3.77867 -0.55467,-1.90667 -1.07467,-3.88267 h -0.13867 q -0.55467,1.976 -1.10933,3.88267 -0.55467,1.872 -1.144,3.77867 l -3.98667,12.72268 z m 4.02133,-6.93334 v -2.32267 h 10.43468 v 2.32267 z"
         id="text1-2-1"
         style="font-size:34.6667px;font-family:'Source Code Pro';-inkscape-font-specification:'Source Code Pro, Normal';white-space:pre;stroke-width:1.51181"
         transform="matrix(1.6780744,0,0,1.6780744,-233.01566,-184.30652)"
         aria-label="A" />
      <g
         id="g1"
         transform="translate(26.081538,0.13584134)"
         style="fill:currentColor;fill-opacity:1">
        <path
           d="m 147.23034,136.02568 v -22.74136 h 7.07201 q 2.32267,0 4.09067,0.62401 1.80267,0.58933 2.808,2.01066 1.04,1.38667 1.04,3.74401 0,2.288 -1.04,3.77867 -1.00533,1.49067 -2.808,2.25333 -1.768,0.728 -4.09067,0.728 h -4.19467 v 9.60268 z m 2.87734,-11.96001 h 3.77867 q 2.66933,0 4.056,-1.07467 1.42134,-1.10933 1.42134,-3.328 0,-2.21867 -1.42134,-3.12001 -1.38667,-0.936 -4.056,-0.936 h -3.77867 z m 3.60533,1.56 2.28801,-1.52534 6.93334,11.92535 h -3.29334 z"
           id="text1"
           style="font-size:34.6667px;font-family:'Source Code Pro';-inkscape-font-specification:'Source Code Pro, Normal';white-space:pre;stroke-width:1.51181"
           transform="matrix(1.6780744,0,0,1.6780744,-236.69939,-184.44197)"
           aria-label="R" />
        <path
           d="m 148.30501,143.27102 q -0.55467,0 -1.17867,-0.104 -0.58933,-0.104 -1.04,-0.24267 l 0.58933,-2.25333 q 0.34667,0.104 0.72801,0.17333 0.416,0.0693 0.79733,0.0693 1.768,0 2.87734,-1.04 1.10933,-1.00533 1.73333,-2.56533 l 0.52,-1.248 -7.86934,-16.88269 h 2.87734 l 4.12533,9.32535 q 0.48534,1.10933 1.00534,2.392 0.55466,1.248 1.07467,2.496 h 0.13866 q 0.45067,-1.21333 0.90134,-2.46134 0.48533,-1.28266 0.90133,-2.42666 l 3.67467,-9.32535 h 2.704 l -7.41867,18.23469 q -0.624,1.664 -1.56,2.98133 -0.936,1.352 -2.32267,2.11467 -1.352,0.76267 -3.25867,0.76267 z"
           id="text1-2"
           style="font-size:34.6667px;font-family:'Source Code Pro';-inkscape-font-specification:'Source Code Pro, Normal';white-space:pre;stroke-width:1.51181"
           transform="matrix(1.6780744,0,0,1.6780744,-214.20272,-188.29983)"
           aria-label="y" />
      </g>
    </g>
  </g>
</svg>
