<?xml version="1.0" encoding="UTF-8"?>
<svg version="1.1" xmlns="http://www.w3.org/2000/svg" width="1024" height="1024">
<path d="M0 0 C1.40239509 -0.00300005 2.80478854 -0.00687209 4.2071791 -0.01153234 C8.05915438 -0.02179773 11.91103761 -0.01966234 15.76302061 -0.01547697 C19.95448929 -0.01310894 24.14593549 -0.02228218 28.33739561 -0.02996117 C35.68314087 -0.04180433 43.0288613 -0.04617409 50.37461567 -0.04563999 C61.29832903 -0.04484664 72.22201105 -0.05539781 83.14571603 -0.06805556 C104.9284143 -0.09279443 126.71110495 -0.10157818 148.49381533 -0.10659205 C150.18591727 -0.10698381 150.18591727 -0.10698381 151.91220307 -0.10738349 C153.60770156 -0.1077739 153.60770156 -0.1077739 155.33745255 -0.1081722 C167.86316237 -0.11125444 180.38887008 -0.11775916 192.91457844 -0.12438488 C230.74633239 -0.14403254 268.57808406 -0.16043709 306.40984344 -0.16326141 C307.61990836 -0.16335547 308.82997327 -0.16344954 310.07670682 -0.16354645 C314.98057941 -0.16392493 319.884452 -0.16428892 324.78832459 -0.16464943 C328.47929493 -0.16492115 332.17026527 -0.16519782 335.86123562 -0.16547489 C337.08087366 -0.16556291 338.30051171 -0.16565094 339.55710848 -0.16574163 C377.87790792 -0.168647 416.19865692 -0.19074237 454.51943874 -0.22699833 C497.56938479 -0.26772757 540.61929646 -0.29142 583.66926283 -0.29172093 C588.26016963 -0.29181775 592.85107642 -0.29198447 597.44198322 -0.29220104 C598.5723862 -0.29224516 599.70278917 -0.29228927 600.86744678 -0.29233472 C619.05599972 -0.29345442 637.24450213 -0.31086099 655.4330388 -0.33402036 C673.71514286 -0.35686695 691.99717866 -0.36108547 710.27929176 -0.34647106 C721.13836064 -0.33832199 731.99721441 -0.34400219 742.85625719 -0.36965191 C750.11470895 -0.38541237 757.37300815 -0.38291756 764.63145628 -0.36574518 C768.76399051 -0.35647957 772.89611069 -0.35495978 777.0286125 -0.37571125 C808.53452948 -0.52388195 808.53452948 -0.52388195 821.14663601 5.26006222 C822.16134615 5.71575905 823.1760563 6.17145588 824.22151524 6.64096171 C840.77415619 14.52314243 853.27003749 29.52184654 860.14663601 46.26006222 C862.64856336 53.76584426 864.2708341 61.23950774 864.27313584 69.17236483 C864.27589558 70.34097499 864.27865533 71.50958514 864.2814987 72.71360773 C864.27944338 73.99072659 864.27738806 75.26784546 864.27527046 76.58366489 C864.27661739 77.96501269 864.27840145 79.34636012 864.2805827 80.72770685 C864.28531708 84.53518627 864.28380961 88.3426418 864.28130492 92.15012241 C864.27967372 96.28809674 864.28381112 100.42606593 864.2872141 104.56403863 C864.29237256 111.82040374 864.29378453 119.07676217 864.29275799 126.33312893 C864.29123518 137.12376463 864.29539013 147.91439293 864.30063261 158.70502719 C864.31031307 179.09778301 864.31311712 199.49053633 864.31368967 219.88329418 C864.31414891 235.63057153 864.31620564 251.3778479 864.3193903 267.12512493 C864.32028782 271.65514227 864.32117763 276.1851596 864.32206517 280.71517694 C864.32228622 281.8413026 864.32250727 282.96742826 864.32273502 284.12767893 C864.32889094 315.81227202 864.33283541 347.49686476 864.33239174 379.18145847 C864.33237616 380.37651085 864.33236058 381.57156322 864.33234453 382.8028293 C864.33226142 388.86008061 864.33216238 394.91733192 864.33205982 400.97458322 C864.33202991 402.77912349 864.33202991 402.77912349 864.33199938 404.62011911 C864.33195895 407.05293422 864.33191715 409.48574932 864.33187399 411.91856442 C864.33126124 449.76889175 864.33876704 487.61921011 864.35244656 525.46953487 C864.36780336 567.97848907 864.37641301 610.48743737 864.37548333 652.99639452 C864.3754087 657.52829798 864.37536 662.06020145 864.37532902 666.59210491 C864.37531154 668.26595118 864.37531154 668.26595118 864.3752937 669.97361252 C864.37526291 687.94087129 864.38165216 705.90812229 864.39026128 723.87537875 C864.39873355 741.93036139 864.39973107 759.98533265 864.39315196 778.04031618 C864.38945338 788.76905779 864.39129787 799.49776486 864.4010943 810.22650282 C864.40708566 817.39308469 864.40580823 824.55964148 864.3986238 831.72622218 C864.39473516 835.80951805 864.39398722 839.89274698 864.40208115 843.97603817 C864.40938858 847.69513321 864.40739004 851.4141059 864.39815729 855.1331956 C864.39564019 857.09176756 864.40287626 859.05034478 864.41058007 861.00890321 C864.32359846 882.67975919 857.55433153 899.99261965 843.14663601 916.26006222 C829.705311 928.09564505 812.67984943 937.3783149 794.36083323 937.38771272 C793.19498282 937.39072869 792.0291324 937.39374465 790.82795319 937.39685202 C788.90919191 937.39419781 788.90919191 937.39419781 786.95166779 937.39148998 C785.57209064 937.39313993 784.19251396 937.39522634 782.81293806 937.39771008 C779.00570039 937.4032826 775.19848519 937.40260325 771.39124474 937.40093249 C767.25523936 937.4002023 763.11924036 937.40522222 758.98323768 937.40950751 C750.77258337 937.41709414 742.56193555 937.41928091 734.35127809 937.41983657 C724.51940507 937.42074956 714.68753808 937.42741522 704.85566764 937.43418339 C681.08967864 937.45025293 657.32369027 937.45614786 633.55769681 937.46093214 C622.31636885 937.46326725 611.07504141 937.46686981 599.83371385 937.47062752 C561.359475 937.48346419 522.88523643 937.49418303 484.41099548 937.49763012 C481.99520516 937.49785175 479.57941484 937.49807354 477.16362452 937.49829547 C474.7419669 937.49851611 472.32030928 937.49873659 469.89865166 937.49895692 C465.04031376 937.49939947 460.18197586 937.49984659 455.32363796 937.50029659 C454.11905012 937.50040598 452.91446229 937.50051537 451.67337179 937.50062808 C412.61517337 937.50425865 373.55699351 937.52017813 334.4988022 937.54348696 C293.21225079 937.56808059 251.92570999 937.58180275 210.63915104 937.58299804 C206.10719613 937.58316949 201.57524123 937.58338492 197.04328632 937.58363247 C195.36942258 937.58371612 195.36942258 937.58371612 193.6617434 937.58380147 C175.6994687 937.58495236 157.73721303 937.59597769 139.77494475 937.61051952 C121.72092241 937.62488291 103.66692448 937.62812241 85.612898 937.62007955 C74.88678686 937.61562246 64.1607545 937.6194871 53.4346537 937.63531805 C46.26723851 937.64506802 39.09987852 937.64388961 31.93246384 937.63388183 C27.85028968 937.62848993 23.76826682 937.62777924 19.6861052 937.64039055 C15.96565059 937.65178824 12.24546936 937.64914127 8.5250239 937.63572347 C6.57058827 937.63217411 4.61614232 937.64321599 2.66173908 937.65501475 C-17.22271023 937.53791987 -35.98153933 931.03646268 -50.75180149 917.45146847 C-67.27015994 900.22693485 -74.01510506 881.44414851 -73.98758507 857.82458496 C-73.98953964 856.44328197 -73.99192911 855.06197955 -73.99471304 853.68067798 C-74.00110297 849.87796014 -74.00127547 846.07526346 -74.00043563 842.27254128 C-74.00060533 838.1379274 -74.00651369 834.00332105 -74.01167649 829.86871094 C-74.02099947 821.66501121 -74.02492403 813.46131688 -74.02719546 805.25761251 C-74.0301583 795.43235406 -74.03885617 785.60710276 -74.04760974 775.78184807 C-74.06845143 752.03371033 -74.07892337 728.28557136 -74.08773934 704.53742661 C-74.09194611 693.30293945 -74.09716805 682.06845282 -74.10242387 670.83396611 C-74.12031352 632.37723973 -74.1353097 593.92051319 -74.14274406 555.46378326 C-74.14321882 553.0495822 -74.14369471 550.63538114 -74.14417173 548.22118008 C-74.1444081 547.02395495 -74.14464448 545.82672983 -74.14488802 544.59322515 C-74.14608921 538.52749961 -74.14730466 532.46177408 -74.14853001 526.39604855 C-74.14877016 525.192288 -74.14901031 523.98852745 -74.14925773 522.74828931 C-74.15715108 483.71743056 -74.18058393 444.68660219 -74.21308595 405.6557567 C-74.24738606 364.39030789 -74.26709535 323.12487686 -74.27038831 281.85941356 C-74.27080584 277.32913903 -74.27128541 272.7988645 -74.27181149 268.26858997 C-74.27193468 267.15310866 -74.27205787 266.03762734 -74.27218479 264.88834356 C-74.27451653 246.93958395 -74.29017499 228.99085964 -74.31065333 211.04211262 C-74.33091213 192.99949756 -74.33638835 174.95692489 -74.3268827 156.91430057 C-74.32166806 146.19746274 -74.32754357 135.48076608 -74.34941737 124.76394858 C-74.3629331 117.60023547 -74.3618416 110.43661944 -74.34901541 103.27290534 C-74.34212401 99.19448567 -74.34143106 95.11633571 -74.3585755 91.03794021 C-74.5022285 54.65106587 -74.5022285 54.65106587 -66.29086399 39.01006222 C-65.95570774 38.3565881 -65.62055149 37.70311398 -65.27523899 37.02983761 C-61.52788286 30.102471 -56.50421527 24.67857306 -50.85336399 19.26006222 C-50.15082493 18.57299191 -49.44828587 17.88592159 -48.72445774 17.17803097 C-34.80717725 4.27291633 -18.54609498 -0.0551704 0 0 Z M134.14663601 370.26006222 C135.14663601 372.26006222 135.14663601 372.26006222 135.14663601 372.26006222 Z M550.14663601 398.26006222 C551.14663601 401.26006222 551.14663601 401.26006222 551.14663601 401.26006222 Z M713.14663601 399.26006222 C714.14663601 402.26006222 714.14663601 402.26006222 714.14663601 402.26006222 Z " fill="#000101" transform="translate(116.85336399078369,43.7399377822876)"/>
<path d="M0 0 C21.78 0 43.56 0 66 0 C68.43554653 6.08886632 70.78637426 12.06766133 72.83398438 18.27490234 C73.08839294 19.037836 73.34280151 19.80076965 73.60491943 20.58682251 C74.4373813 23.08558896 75.26558352 25.58574449 76.09375 28.0859375 C76.68678571 29.86879194 77.28009404 31.65155572 77.87365723 33.43423462 C79.43674235 38.13109741 80.99623902 42.82914382 82.55493164 47.52746582 C84.09705247 52.17394639 85.64236371 56.81936525 87.1875 61.46484375 C89.62405858 68.79154834 92.05911702 76.11874975 94.49316406 83.44628906 C97.72560721 93.17653344 100.96168971 102.90555983 104.203125 112.6328125 C104.44679054 113.36406216 104.69045609 114.09531181 104.94150543 114.84872055 C108.06237071 124.21233878 111.19671621 133.57134225 114.34326172 142.92636108 C115.96427883 147.74582915 117.58176415 152.56647995 119.19824219 157.38747215 C120.35811029 160.84577778 121.52040958 164.30323699 122.68701172 167.75927734 C123.85371633 171.21604951 125.01460243 174.67472526 126.17144012 178.1348114 C126.81218942 180.04621302 127.4590273 181.95557019 128.10601807 183.86486816 C128.48772156 185.00967651 128.86942505 186.15448486 129.26269531 187.33398438 C129.5995636 188.33570679 129.93643188 189.3374292 130.2835083 190.36950684 C131 193 131 193 131 197 C131.66 197 132.32 197 133 197 C133.09176514 195.91589844 133.18353027 194.83179688 133.27807617 193.71484375 C133.98705143 188.1074731 135.77708831 182.91032889 137.55078125 177.5625 C137.91645203 176.43910721 138.2821228 175.31571442 138.65887451 174.15827942 C139.6608088 171.081963 140.66866783 168.0076577 141.67842484 164.93390274 C143.42265565 159.61407169 145.14726888 154.28781808 146.87391472 148.96225929 C147.3247907 147.57166998 147.77590001 146.18115631 148.22723579 144.79071617 C153.08112783 129.83302652 157.77514612 114.82712668 162.44163513 99.81010818 C169.21185197 78.02720297 176.07145165 56.27560166 183.0625 34.5625 C183.44648956 33.36960358 183.83047913 32.17670715 184.22610474 30.94766235 C185.30720975 27.59106112 186.38948115 24.23484 187.47265625 20.87890625 C187.94469482 19.41623322 187.94469482 19.41623322 188.42626953 17.92401123 C189.28085127 15.28157898 190.13991832 12.64064627 191 10 C191.28044159 9.12955048 191.56088318 8.25910095 191.849823 7.36227417 C192.11650787 6.54397125 192.38319275 5.72566833 192.65795898 4.88256836 C192.89296616 4.15702255 193.12797333 3.43147675 193.37010193 2.6839447 C194 1 194 1 195 0 C217.44 0 239.88 0 263 0 C263 93.06 263 186.12 263 282 C246.5 282 230 282 213 282 C212.67 218.64 212.34 155.28 212 90 C189.40971858 158.58500853 189.40971858 158.58500853 167.07275772 227.25156975 C166.31027635 229.61197868 165.54761292 231.97232869 164.78488159 234.33265686 C164.40612664 235.50476542 164.40612664 235.50476542 164.01972008 236.70055294 C163.50794117 238.28431986 162.99615246 239.86808361 162.48435402 241.45184422 C160.9643828 246.15601967 159.44614396 250.86074994 157.92923641 255.56591415 C156.98392781 258.4971087 156.03733604 261.42788778 155.09044075 264.3585701 C154.6444258 265.74000467 154.19897884 267.12162276 153.75411797 268.50342941 C153.14116625 270.40713461 152.52608396 272.31015341 151.91088867 274.21313477 C151.56450851 275.28700943 151.21812836 276.36088409 150.86125183 277.46730042 C150 280 150 280 149 282 C137.78 282 126.56 282 115 282 C112.61507207 276.03768018 110.29761944 270.18801355 108.28955078 264.11157227 C108.04782229 263.38826249 107.80609381 262.66495272 107.55704021 261.91972446 C106.76689695 259.55290739 105.98103837 257.18469308 105.1953125 254.81640625 C104.63407341 253.13183103 104.07260075 251.44733362 103.51091003 249.76290894 C102.01952977 245.28762374 100.53209264 240.81103772 99.04562759 236.33411789 C98.12146957 233.55187137 97.19612233 230.77002327 96.27035522 227.98831177 C89.02702671 206.22367885 81.81836616 184.44900462 74.75488281 162.62524414 C70.36247688 149.06095176 65.88031427 135.52718213 61.375 122 C61.0317569 120.96777313 60.68851379 119.93554626 60.33486938 118.87203979 C59.35780566 115.93494082 58.37852208 112.99859215 57.3984375 110.0625 C57.11364029 109.20612442 56.82884308 108.34974884 56.53541565 107.46742249 C54.46062558 101.2664911 52.23669213 95.15090334 50 89 C49.67 152.69 49.34 216.38 49 282 C32.83 282 16.66 282 0 282 C0 188.94 0 95.88 0 0 Z " fill="#FDFEFE" transform="translate(618,355)"/>
<path d="M0 0 C20.13 0 40.26 0 61 0 C70.20582461 27.61747384 70.20582461 27.61747384 74.1706543 40.73095703 C76.06932286 46.9988637 77.97971249 53.26316053 79.890625 59.52734375 C80.39634285 61.18672974 80.39634285 61.18672974 80.91227722 62.87963867 C91.80669599 98.62113928 102.95277233 134.28051067 114.28518677 169.88526917 C114.60015295 170.87486224 114.60015295 170.87486224 114.92148209 171.8844471 C115.34989619 173.23046546 115.77833002 174.57647755 116.20678329 175.92248344 C121.9157536 193.85946202 127.58673151 211.80844483 133.25562668 229.75812149 C134.05694738 232.29492167 134.85862738 234.83160801 135.66043091 237.36825562 C136.92477035 241.36826269 138.18837884 245.36849991 139.45140076 249.36892319 C139.91629506 250.84106598 140.38141586 252.31313726 140.8467865 253.78512955 C141.8814125 257.05810285 142.91261573 260.33202797 143.93753052 263.60806274 C144.60542553 265.74031974 145.28039771 267.87038591 145.96554565 269.99716187 C146.37983322 271.30990585 146.37983322 271.30990585 146.80249023 272.64916992 C147.15463844 273.74608406 147.15463844 273.74608406 147.51390076 274.86515808 C148 277 148 277 148 282 C130.18 282 112.36 282 94 282 C90.62349427 272.99598471 90.62349427 272.99598471 89.19067383 268.3659668 C88.87056839 267.33517502 88.55046295 266.30438324 88.22065735 265.24235535 C87.88616074 264.15562027 87.55166412 263.06888519 87.20703125 261.94921875 C86.85613937 260.81345901 86.5052475 259.67769928 86.14372253 258.50752258 C85.40712913 256.12023317 84.67182552 253.73254546 83.93774414 251.34448242 C82.81037819 247.68060424 81.67589032 244.0189802 80.54101562 240.35742188 C79.82508694 238.03398782 79.10957735 235.71042458 78.39453125 233.38671875 C78.05396194 232.28986252 77.71339264 231.19300629 77.36250305 230.06291199 C77.0518541 229.04788101 76.74120514 228.03285004 76.42114258 226.98706055 C76.14595291 226.09407761 75.87076324 225.20109467 75.5872345 224.28105164 C75 222 75 222 75 219 C45.63 219 16.26 219 -14 219 C-14.99 222.96 -15.98 226.92 -17 231 C-17.57922585 233.02164435 -18.17629361 235.03849817 -18.80932617 237.04394531 C-19.29604797 238.5949292 -19.29604797 238.5949292 -19.79260254 240.17724609 C-20.12272339 241.21703613 -20.45284424 242.25682617 -20.79296875 243.328125 C-21.26023376 244.8138501 -21.26023376 244.8138501 -21.73693848 246.32958984 C-22.88327433 249.97094124 -24.03572952 253.61036394 -25.1875 257.25 C-27.765625 265.4175 -30.34375 273.585 -33 282 C-50.16 282 -67.32 282 -85 282 C-85 276.66403586 -84.96430411 274.01239857 -83.46899414 269.2644043 C-83.1282486 268.16490952 -82.78750305 267.06541473 -82.43643188 265.93260193 C-82.05651093 264.74183548 -81.67658997 263.55106903 -81.28515625 262.32421875 C-80.88239852 261.03622576 -80.48060119 259.74793212 -80.0796814 258.45936584 C-79.21055186 255.67203718 -78.33549131 252.88666802 -77.45578003 250.10266113 C-76.03534484 245.60641828 -74.62858377 241.10597461 -73.22485352 236.60449219 C-72.98416736 235.83270315 -72.7434812 235.06091412 -72.49550152 234.26573753 C-72.00103027 232.6800016 -71.50661269 231.09424894 -71.01224709 229.50848007 C-70.24885606 227.06113038 -69.48421954 224.61417237 -68.71940613 222.16726685 C-65.01095699 210.29438511 -61.35990365 198.4047295 -57.7421875 186.50390625 C-57.48297075 185.65124805 -57.22375401 184.79858986 -56.95668221 183.92009354 C-55.64324494 179.59875553 -54.330663 175.27715823 -53.01846313 170.95544434 C-44.31334703 142.28834776 -35.50540547 113.65626435 -26.53415203 85.07135582 C-20.48993813 65.81226396 -14.53434823 46.52787418 -8.66552734 27.21459961 C-8.37773407 26.26932907 -8.0899408 25.32405853 -7.79342651 24.35014343 C-7.27076176 22.63290065 -6.74938329 20.9152654 -6.22976685 19.19709778 C-4.26782725 12.7521283 -2.13294677 6.3988403 0 0 Z M31 59 C32 61 32 61 32 61 Z " fill="#FDFDFE" transform="translate(220,355)"/>
<path d="M0 0 C3.03168328 2.65371814 5.85677682 5.47383945 8.671875 8.35546875 C9.41050781 9.07347656 10.14914062 9.79148437 10.91015625 10.53125 C24.70053814 24.75007094 31.671875 46.89130073 31.671875 66.35546875 C13.851875 66.35546875 -3.968125 66.35546875 -22.328125 66.35546875 C-24.308125 59.42546875 -26.288125 52.49546875 -28.328125 45.35546875 C-32.44940012 37.89051758 -36.22356494 33.24073905 -44.328125 30.35546875 C-59.87052175 25.98583492 -76.10694992 25.22774517 -90.703125 32.91796875 C-97.66031653 37.4032321 -101.19829798 44.52381781 -103.328125 52.35546875 C-104.23720498 62.03956281 -104.58083848 71.34142753 -98.328125 79.35546875 C-89.53200339 89.15686141 -77.41952794 94.70904524 -65.265625 99.16796875 C-64.15437256 99.5868335 -63.04312012 100.00569824 -61.89819336 100.43725586 C-56.04894764 102.63456553 -50.17975201 104.77519348 -44.3046875 106.90234375 C-25.81628379 113.61216993 -8.03945035 120.29471605 7.671875 132.35546875 C8.3421875 132.84273437 9.0125 133.33 9.703125 133.83203125 C23.06291049 144.21622816 31.54992795 161.81618054 33.671875 178.35546875 C35.51762919 201.09072422 31.61854584 221.91135266 17.421875 240.23046875 C-0.48689629 260.61468454 -25.68408059 270.04733259 -52.328125 272.35546875 C-84.96435069 273.89522302 -116.49704508 268.28211177 -141.75390625 246.23828125 C-158.07764414 230.81989353 -165.46065561 208.92674294 -166.34765625 186.9375 C-166.328125 183.35546875 -166.328125 183.35546875 -165.328125 179.35546875 C-148.498125 179.35546875 -131.668125 179.35546875 -114.328125 179.35546875 C-112.88387019 184.41036057 -111.87520812 188.90791405 -111.078125 194.04296875 C-109.44917675 203.33920791 -106.42890378 213.19014905 -98.578125 219.11328125 C-87.7309738 225.10181264 -76.66237701 226.53468876 -64.515625 226.54296875 C-63.58169922 226.55521484 -62.64777344 226.56746094 -61.68554688 226.58007812 C-50.73022623 226.60288587 -39.99750411 224.79122839 -31.015625 218.10546875 C-24.75268406 211.69687802 -22.27554184 203.39144215 -22.015625 194.54296875 C-22.21836429 184.99037051 -24.68872538 177.36202411 -31.328125 170.35546875 C-41.73105976 161.45934672 -55.16288699 157.44297007 -67.90835571 153.1026001 C-112.49911862 137.84937267 -112.49911862 137.84937267 -130.328125 123.35546875 C-130.83585449 122.95038086 -131.34358398 122.54529297 -131.86669922 122.12792969 C-147.24216358 109.68903195 -156.73795811 92.17942249 -159.08203125 72.484375 C-160.87184543 49.72816609 -155.58671257 28.39170819 -140.57299805 10.77416992 C-108.5712225 -25.28842619 -37.64847056 -31.16006927 0 0 Z " fill="#FDFDFE" transform="translate(546.328125,368.64453125)"/>
<path d="M0 0 C0.99 0 1.98 0 3 0 C3.28512955 1.03442734 3.57025909 2.06885468 3.86402893 3.1346283 C6.5838105 13.00152034 9.30413186 22.86826344 12.02494907 32.73486996 C13.42289926 37.80437599 14.82067521 42.87392991 16.21801758 47.94360352 C17.56877966 52.84422482 18.91996887 57.74472815 20.27152634 62.64513016 C20.80081239 64.56430744 21.32999 66.48351462 21.85905838 68.40275192 C24.33457679 77.38179274 26.81115684 86.36033192 29.33935547 95.32470703 C29.67378159 96.51125381 30.0082077 97.6978006 30.35276794 98.92030334 C30.9474458 101.02424383 31.54447309 103.12752242 32.14442444 105.22996521 C32.39574631 106.11773148 32.64706818 107.00549774 32.90600586 107.92016602 C33.12010605 108.67024429 33.33420624 109.42032257 33.55479431 110.19313049 C34 112 34 112 34 114 C11.89 114 -10.22 114 -33 114 C-25.12349765 85.54295926 -17.0538759 57.17103608 -8.625 28.875 C-8.40978573 28.15250061 -8.19457146 27.43000122 -7.97283554 26.68560791 C-5.32191738 17.78840147 -2.66429404 8.89321098 0 0 Z " fill="#000101" transform="translate(250,416)"/>
</svg>
